<?xml version="1.0" encoding="UTF-8"?>
<svg version="1.1" xmlns="http://www.w3.org/2000/svg" width="128" height="128">
<path d="M0 0 C42.24 0 84.48 0 128 0 C128 42.24 128 84.48 128 128 C85.76 128 43.52 128 0 128 C0 85.76 0 43.52 0 0 Z " fill="#FBFCFF" transform="translate(0,0)"/>
<path d="M0 0 C42.24 0 84.48 0 128 0 C128 25.08 128 50.16 128 76 C126.02384661 73.03576992 124.44679603 70.03887744 122.8125 66.875 C114.27737046 50.82183459 101.55247889 38.605193 85 31 C85 30.67 85 30.34 85 30 C92.02952752 30.4535179 97.5849443 32.12059087 104 35 C91.80853356 25.65938978 79.77122072 18.37089344 64.0625 18.5625 C63.18368164 18.57079834 62.30486328 18.57909668 61.39941406 18.58764648 C50.60404544 18.86925608 43.4751096 22.1681238 36 30 C35.236875 31.051875 34.47375 32.10375 33.6875 33.1875 C30.365481 36.66403152 27.43654704 37.47774878 22.93359375 38.92578125 C18.13760669 40.68196826 12.6605562 43.3394438 9 47 C10.12277344 47.27972656 11.24554688 47.55945312 12.40234375 47.84765625 C22.45814554 50.48594298 31.50073162 53.14951821 37.4375 62.375 C40.956217 70.53842344 41.40383231 78.89794204 41.9375 87.6875 C42.86793759 100.83958467 43.79350158 112.37811938 50.79296875 123.890625 C52 126 52 126 52 128 C34.84 128 17.68 128 0 128 C0 85.76 0 43.52 0 0 Z " fill="#016AFF" transform="translate(0,0)"/>
<path d="M0 0 C3.5978901 2.76609335 6.8870938 5.69807482 10 9 C10.79712402 9.78153442 10.79712402 9.78153442 11.61035156 10.57885742 C13.7277396 14.26791876 13.37103004 17.7430351 13.29296875 21.921875 C13.28994751 22.6845166 13.28692627 23.4471582 13.28381348 24.23291016 C13.26815941 27.07207847 13.2262753 29.91105333 13.1875 32.75 C13.125625 39.1025 13.06375 45.455 13 52 C-9.11 52 -31.22 52 -54 52 C-59.01169036 41.97661928 -60.96151794 32.91305042 -58.19921875 21.76953125 C-54.22929804 11.22400304 -47.22964367 3.75925492 -37.5546875 -1.84375 C-25.51111532 -7.2946634 -11.29011091 -6.93056314 0 0 Z " fill="#016AFF" transform="translate(115,76)"/>
<path d="M0 0 C0.99 0 1.98 0 3 0 C3.66 1.98 4.32 3.96 5 6 C6.65 6 8.3 6 10 6 C10.66 4.02 11.32 2.04 12 0 C14.97 0.495 14.97 0.495 18 1 C17.5047783 4.66464055 16.9791794 6.70832354 14 9 C10.40735548 10.19754817 7.77282526 10.33094958 4 10 C1.1456384 7.97190097 0.19947745 6.65981002 -0.8125 3.3125 C-0.9053125 2.1678125 -0.9053125 2.1678125 -1 1 C-0.67 0.67 -0.34 0.34 0 0 Z " fill="#1E7AFF" transform="translate(43,36)"/>
<path d="M0 0 C1.45922693 0.11409593 2.91740598 0.24165544 4.375 0.375 C5.59316406 0.47941406 5.59316406 0.47941406 6.8359375 0.5859375 C9 1 9 1 11 3 C10.01 3.66 9.02 4.32 8 5 C5.36 3.68 2.72 2.36 0 1 C0 0.67 0 0.34 0 0 Z " fill="#3B8BFF" transform="translate(85,30)"/>
</svg>
